<?xml version="1.0" encoding="UTF-8"?>
<svg width="1024px" height="1024px" viewBox="0 0 1024 1024" version="1.1" xmlns="http://www.w3.org/2000/svg" xmlns:xlink="http://www.w3.org/1999/xlink">
    <title>Frame</title>
    <defs>
        <path d="M30,0 L994,0 C1010.56854,-3.55271368e-15 1024,13.4314575 1024,30 L1024,994 C1024,1010.56854 1010.56854,1024 994,1024 L30,1024 C13.4314575,1024 0,1010.56854 0,994 L0,30 C-3.55271368e-15,13.4314575 13.4314575,3.55271368e-15 30,0 Z" id="path-1"></path>
        <rect id="path-2" x="160" y="65" width="704" height="128" rx="4"></rect>
        <mask id="mask-3" maskContentUnits="userSpaceOnUse" maskUnits="objectBoundingBox" x="0" y="0" width="704" height="128" fill="white">
            <use xlink:href="#path-2"></use>
        </mask>
        <path d="M0,0 L64,0 L64,64 L0,64 L0,0 Z" id="path-4"></path>
        <path d="M0,0 L64,0 L64,64 L0,64 L0,0 Z" id="path-5"></path>
        <path d="M0,0 L64,0 L64,64 L0,64 L0,0 Z" id="path-6"></path>
        <path d="M0,0 L64,0 L64,64 L0,64 L0,0 Z" id="path-7"></path>
        <path d="M0,0 L64,0 L64,64 L0,64 L0,0 Z" id="path-8"></path>
        <path d="M0,0 L64,0 L64,64 L0,64 L0,0 Z" id="path-9"></path>
        <path d="M0,0 L64,0 L64,64 L0,64 L0,0 Z" id="path-10"></path>
        <rect id="path-11" x="128" y="320" width="320" height="128" rx="4"></rect>
        <mask id="mask-12" maskContentUnits="userSpaceOnUse" maskUnits="objectBoundingBox" x="0" y="0" width="320" height="128" fill="white">
            <use xlink:href="#path-11"></use>
        </mask>
        <rect id="path-13" x="32" y="576" width="256" height="128" rx="4"></rect>
        <mask id="mask-14" maskContentUnits="userSpaceOnUse" maskUnits="objectBoundingBox" x="0" y="0" width="256" height="128" fill="white">
            <use xlink:href="#path-13"></use>
        </mask>
        <rect id="path-15" x="544" y="576" width="128" height="128" rx="4"></rect>
        <mask id="mask-16" maskContentUnits="userSpaceOnUse" maskUnits="objectBoundingBox" x="0" y="0" width="128" height="128" fill="white">
            <use xlink:href="#path-15"></use>
        </mask>
        <rect id="path-17" x="800" y="576" width="128" height="128" rx="4"></rect>
        <mask id="mask-18" maskContentUnits="userSpaceOnUse" maskUnits="objectBoundingBox" x="0" y="0" width="128" height="128" fill="white">
            <use xlink:href="#path-17"></use>
        </mask>
        <rect id="path-19" x="224" y="832" width="128" height="128" rx="4"></rect>
        <mask id="mask-20" maskContentUnits="userSpaceOnUse" maskUnits="objectBoundingBox" x="0" y="0" width="128" height="128" fill="white">
            <use xlink:href="#path-19"></use>
        </mask>
        <rect id="path-21" x="576" y="320" width="320" height="128" rx="4"></rect>
        <mask id="mask-22" maskContentUnits="userSpaceOnUse" maskUnits="objectBoundingBox" x="0" y="0" width="320" height="128" fill="white">
            <use xlink:href="#path-21"></use>
        </mask>
        <path d="M0,0 L64,0 L64,64 L0,64 L0,0 Z" id="path-23"></path>
        <path d="M0,0 L64,0 L64,64 L0,64 L0,0 Z" id="path-24"></path>
        <path d="M0,0 L64,0 L64,64 L0,64 L0,0 Z" id="path-25"></path>
        <path d="M0,0 L64,0 L64,64 L0,64 L0,0 Z" id="path-26"></path>
        <path d="M0,0 L64,0 L64,64 L0,64 L0,0 Z" id="path-27"></path>
        <path d="M0,0 L64,0 L64,64 L0,64 L0,0 Z" id="path-28"></path>
        <path d="M0,0 L64,0 L64,64 L0,64 L0,0 Z" id="path-29"></path>
        <path d="M0,0 L64,0 L64,64 L0,64 L0,0 Z" id="path-30"></path>
        <path d="M0,0 L64,0 L64,64 L0,64 L0,0 Z" id="path-31"></path>
        <path d="M0,0 L64,0 L64,64 L0,64 L0,0 Z" id="path-32"></path>
        <path d="M0,0 L64,0 L64,64 L0,64 L0,0 Z" id="path-33"></path>
        <path d="M0,0 L64,0 L64,64 L0,64 L0,0 Z" id="path-34"></path>
        <path d="M0,0 L64,0 L64,64 L0,64 L0,0 Z" id="path-35"></path>
        <path d="M0,0 L64,0 L64,64 L0,64 L0,0 Z" id="path-36"></path>
        <path d="M0,0 L64,0 L64,64 L0,64 L0,0 Z" id="path-37"></path>
    </defs>
    <g id="Frame" stroke="none" fill="none" xlink:href="#path-1">
        <use fill="#FFFFFF" fill-rule="evenodd" xlink:href="#path-1"></use>
        <use id="Rectangle" stroke="#979797" mask="url(#mask-3)" stroke-width="6" stroke-linecap="square" stroke-dasharray="2,8" xlink:href="#path-2"></use>
        <g id="cell" transform="translate(288, 97)" xlink:href="#path-4">
            <rect id="Rectangle" stroke="#979797" stroke-width="2" fill="#F1F1F1" fill-rule="evenodd" x="1" y="1" width="62" height="62" rx="4"></rect>
            <text id="number" font-family="Helvetica" font-size="18" font-weight="normal" fill="#000000">
                <tspan x="26.9946289" y="34">2</tspan>
            </text>
        </g>
        <g id="cell" transform="translate(192, 97)" xlink:href="#path-5">
            <rect id="Rectangle" stroke="#979797" stroke-width="2" fill="#F1F1F1" fill-rule="evenodd" x="1" y="1" width="62" height="62" rx="4"></rect>
            <text id="number" font-family="Helvetica" font-size="18" font-weight="normal" fill="#000000">
                <tspan x="26.9946289" y="34">7</tspan>
            </text>
        </g>
        <g id="cell" transform="translate(384, 97)" xlink:href="#path-6">
            <rect id="Rectangle" stroke="#979797" stroke-width="2" fill="#F1F1F1" fill-rule="evenodd" x="1" y="1" width="62" height="62" rx="4"></rect>
            <text id="number" font-family="Helvetica" font-size="18" font-weight="normal" fill="#000000">
                <tspan x="26.9946289" y="34">5</tspan>
            </text>
        </g>
        <g id="cell" transform="translate(480, 97)" xlink:href="#path-7">
            <rect id="Rectangle" stroke="#979797" stroke-width="2" fill="#F1F1F1" fill-rule="evenodd" x="1" y="1" width="62" height="62" rx="4"></rect>
            <text id="number" font-family="Helvetica" font-size="18" font-weight="normal" fill="#000000">
                <tspan x="26.9946289" y="34">6</tspan>
            </text>
        </g>
        <g id="cell" transform="translate(576, 97)" xlink:href="#path-8">
            <rect id="Rectangle" stroke="#979797" stroke-width="2" fill="#F1F1F1" fill-rule="evenodd" x="1" y="1" width="62" height="62" rx="4"></rect>
            <text id="number" font-family="Helvetica" font-size="18" font-weight="normal" fill="#000000">
                <tspan x="26.9946289" y="34">1</tspan>
            </text>
        </g>
        <g id="cell" transform="translate(672, 97)" xlink:href="#path-9">
            <rect id="Rectangle" stroke="#979797" stroke-width="2" fill="#F1F1F1" fill-rule="evenodd" x="1" y="1" width="62" height="62" rx="4"></rect>
            <text id="number" font-family="Helvetica" font-size="18" font-weight="normal" fill="#000000">
                <tspan x="26.9946289" y="34">3</tspan>
            </text>
        </g>
        <g id="cell" transform="translate(768, 97)" xlink:href="#path-10">
            <rect id="Rectangle" stroke="#6DD400" stroke-width="4" fill="#F1F1F1" fill-rule="evenodd" x="2" y="2" width="60" height="60" rx="4"></rect>
            <text id="number" font-family="Helvetica" font-size="18" font-weight="normal" fill="#000000">
                <tspan x="26.9946289" y="34">4</tspan>
            </text>
        </g>
        <use id="Rectangle" stroke="#979797" mask="url(#mask-12)" stroke-width="6" stroke-linecap="square" stroke-dasharray="2,8" xlink:href="#path-11"></use>
        <use id="Rectangle" stroke="#979797" mask="url(#mask-14)" stroke-width="6" stroke-linecap="square" stroke-dasharray="2,8" xlink:href="#path-13"></use>
        <use id="Rectangle" stroke="#979797" mask="url(#mask-16)" stroke-width="6" stroke-linecap="square" stroke-dasharray="2,8" xlink:href="#path-15"></use>
        <use id="Rectangle" stroke="#979797" mask="url(#mask-18)" stroke-width="6" stroke-linecap="square" stroke-dasharray="2,8" xlink:href="#path-17"></use>
        <use id="Rectangle" stroke="#979797" mask="url(#mask-20)" stroke-width="6" stroke-linecap="square" stroke-dasharray="2,8" xlink:href="#path-19"></use>
        <use id="Rectangle" stroke="#979797" mask="url(#mask-22)" stroke-width="6" stroke-linecap="square" stroke-dasharray="2,8" xlink:href="#path-21"></use>
        <g id="cell" transform="translate(608, 351)" xlink:href="#path-23">
            <rect id="Rectangle" stroke="#979797" stroke-width="2" fill="#F1F1F1" fill-rule="evenodd" x="1" y="1" width="62" height="62" rx="4"></rect>
            <text id="number" font-family="Helvetica" font-size="18" font-weight="normal" fill="#000000">
                <tspan x="26.9946289" y="34">7</tspan>
            </text>
        </g>
        <g id="cell" transform="translate(832, 608)" xlink:href="#path-24">
            <rect id="Rectangle" stroke="#979797" stroke-width="2" fill="#F1F1F1" fill-rule="evenodd" x="1" y="1" width="62" height="62" rx="4"></rect>
            <text id="number" font-family="Helvetica" font-size="18" font-weight="normal" fill="#000000">
                <tspan x="26.9946289" y="34">7</tspan>
            </text>
        </g>
        <g id="cell" transform="translate(704, 351)" xlink:href="#path-25">
            <rect id="Rectangle" stroke="#979797" stroke-width="2" fill="#F1F1F1" fill-rule="evenodd" x="1" y="1" width="62" height="62" rx="4"></rect>
            <text id="number" font-family="Helvetica" font-size="18" font-weight="normal" fill="#000000">
                <tspan x="26.9946289" y="34">5</tspan>
            </text>
        </g>
        <g id="cell" transform="translate(576, 608)" xlink:href="#path-26">
            <rect id="Rectangle" stroke="#979797" stroke-width="2" fill="#F1F1F1" fill-rule="evenodd" x="1" y="1" width="62" height="62" rx="4"></rect>
            <text id="number" font-family="Helvetica" font-size="18" font-weight="normal" fill="#000000">
                <tspan x="26.9946289" y="34">5</tspan>
            </text>
        </g>
        <g id="cell" transform="translate(800, 351)" xlink:href="#path-27">
            <rect id="Rectangle" stroke="#6DD400" stroke-width="4" fill="#F1F1F1" fill-rule="evenodd" x="2" y="2" width="60" height="60" rx="4"></rect>
            <text id="number" font-family="Helvetica" font-size="18" font-weight="normal" fill="#000000">
                <tspan x="26.9946289" y="34">6</tspan>
            </text>
        </g>
        <g id="cell" transform="translate(704, 576)" xlink:href="#path-28">
            <rect id="Rectangle" stroke="#6DD400" stroke-width="4" fill="#F1F1F1" fill-rule="evenodd" x="2" y="2" width="60" height="60" rx="4"></rect>
            <text id="number" font-family="Helvetica" font-size="18" font-weight="normal" fill="#000000">
                <tspan x="26.9946289" y="34">6</tspan>
            </text>
        </g>
        <g id="cell" transform="translate(80, 608)" xlink:href="#path-29">
            <rect id="Rectangle" stroke="#979797" stroke-width="2" fill="#F1F1F1" fill-rule="evenodd" x="1" y="1" width="62" height="62" rx="4"></rect>
            <text id="number" font-family="Helvetica" font-size="18" font-weight="normal" fill="#000000">
                <tspan x="26.9946289" y="34">2</tspan>
            </text>
        </g>
        <g id="cell" transform="translate(256, 864)" xlink:href="#path-30">
            <rect id="Rectangle" stroke="#979797" stroke-width="2" fill="#F1F1F1" fill-rule="evenodd" x="1" y="1" width="62" height="62" rx="4"></rect>
            <text id="number" font-family="Helvetica" font-size="18" font-weight="normal" fill="#000000">
                <tspan x="26.9946289" y="34">2</tspan>
            </text>
        </g>
        <g id="cell" transform="translate(160, 351)" xlink:href="#path-31">
            <rect id="Rectangle" stroke="#979797" stroke-width="2" fill="#F1F1F1" fill-rule="evenodd" x="1" y="1" width="62" height="62" rx="4"></rect>
            <text id="number" font-family="Helvetica" font-size="18" font-weight="normal" fill="#000000">
                <tspan x="26.9946289" y="34">2</tspan>
            </text>
        </g>
        <g id="cell" transform="translate(256, 351)" xlink:href="#path-32">
            <rect id="Rectangle" stroke="#979797" stroke-width="2" fill="#F1F1F1" fill-rule="evenodd" x="1" y="1" width="62" height="62" rx="4"></rect>
            <text id="number" font-family="Helvetica" font-size="18" font-weight="normal" fill="#000000">
                <tspan x="26.9946289" y="34">1</tspan>
            </text>
        </g>
        <g id="cell" transform="translate(176, 608)" xlink:href="#path-33">
            <rect id="Rectangle" stroke="#6DD400" stroke-width="4" fill="#F1F1F1" fill-rule="evenodd" x="2" y="2" width="60" height="60" rx="4"></rect>
            <text id="number" font-family="Helvetica" font-size="18" font-weight="normal" fill="#000000">
                <tspan x="26.9946289" y="34">1</tspan>
            </text>
        </g>
        <g id="cell" transform="translate(128, 832)" xlink:href="#path-34">
            <rect id="Rectangle" stroke="#6DD400" stroke-width="4" fill="#F1F1F1" fill-rule="evenodd" x="2" y="2" width="60" height="60" rx="4"></rect>
            <text id="number" font-family="Helvetica" font-size="18" font-weight="normal" fill="#000000">
                <tspan x="26.9946289" y="34">1</tspan>
            </text>
        </g>
        <g id="cell" transform="translate(352, 351)" xlink:href="#path-35">
            <rect id="Rectangle" stroke="#6DD400" stroke-width="4" fill="#F1F1F1" fill-rule="evenodd" x="2" y="2" width="60" height="60" rx="4"></rect>
            <text id="number" font-family="Helvetica" font-size="18" font-weight="normal" fill="#000000">
                <tspan x="26.9946289" y="34">3</tspan>
            </text>
        </g>
        <g id="cell" transform="translate(320, 576)" xlink:href="#path-36">
            <rect id="Rectangle" stroke="#6DD400" stroke-width="4" fill="#F1F1F1" fill-rule="evenodd" x="2" y="2" width="60" height="60" rx="4"></rect>
            <text id="number" font-family="Helvetica" font-size="18" font-weight="normal" fill="#000000">
                <tspan x="26.9946289" y="34">3</tspan>
            </text>
        </g>
        <g id="cell" transform="translate(480, 320)" xlink:href="#path-37">
            <rect id="Rectangle" stroke="#6DD400" stroke-width="4" fill="#F1F1F1" fill-rule="evenodd" x="2" y="2" width="60" height="60" rx="4"></rect>
            <text id="number" font-family="Helvetica" font-size="18" font-weight="normal" fill="#000000">
                <tspan x="26.9946289" y="34">4</tspan>
            </text>
        </g>
        <path d="M468,348 L463.577709,350.211146 C462.589752,350.705124 462.189303,351.90647 462.683282,352.894427 C462.876809,353.281482 463.190654,353.595327 463.577709,353.788854 L468,356 L468,356" id="Path" stroke="#222222" stroke-width="3" stroke-linecap="round"></path>
        <path d="M564,348 L559.577709,350.211146 C558.589752,350.705124 558.189303,351.90647 558.683282,352.894427 C558.876809,353.281482 559.190654,353.595327 559.577709,353.788854 L564,356 L564,356" id="Path" stroke="#222222" stroke-width="3" stroke-linecap="round" transform="translate(560, 352) scale(-1, 1) translate(-560, -352)"></path>
        <path d="M308,604 L303.577709,606.211146 C302.589752,606.705124 302.189303,607.90647 302.683282,608.894427 C302.876809,609.281482 303.190654,609.595327 303.577709,609.788854 L308,612 L308,612" id="Path" stroke="#222222" stroke-width="3" stroke-linecap="round"></path>
        <path d="M404,604 L399.577709,606.211146 C398.589752,606.705124 398.189303,607.90647 398.683282,608.894427 C398.876809,609.281482 399.190654,609.595327 399.577709,609.788854 L404,612 L404,612" id="Path" stroke="#222222" stroke-width="3" stroke-linecap="round" transform="translate(400, 608) scale(-1, 1) translate(-400, -608)"></path>
        <path d="M692,604 L687.577709,606.211146 C686.589752,606.705124 686.189303,607.90647 686.683282,608.894427 C686.876809,609.281482 687.190654,609.595327 687.577709,609.788854 L692,612 L692,612" id="Path" stroke="#222222" stroke-width="3" stroke-linecap="round"></path>
        <path d="M788,604 L783.577709,606.211146 C782.589752,606.705124 782.189303,607.90647 782.683282,608.894427 C782.876809,609.281482 783.190654,609.595327 783.577709,609.788854 L788,612 L788,612" id="Path" stroke="#222222" stroke-width="3" stroke-linecap="round" transform="translate(784, 608) scale(-1, 1) translate(-784, -608)"></path>
        <path d="M116,860 L111.577709,862.211146 C110.589752,862.705124 110.189303,863.90647 110.683282,864.894427 C110.876809,865.281482 111.190654,865.595327 111.577709,865.788854 L116,868 L116,868" id="Path" stroke="#222222" stroke-width="3" stroke-linecap="round"></path>
        <path d="M212,860 L207.577709,862.211146 C206.589752,862.705124 206.189303,863.90647 206.683282,864.894427 C206.876809,865.281482 207.190654,865.595327 207.577709,865.788854 L212,868 L212,868" id="Path" stroke="#222222" stroke-width="3" stroke-linecap="round" transform="translate(208, 864) scale(-1, 1) translate(-208, -864)"></path>
    </g>
</svg>