<svg xmlns="http://www.w3.org/2000/svg" width="1024" height="1024">
    <g fill="none">

        <!-- Group 1 --> 

        <g transform="translate(192 97)" opacity="0">
            <rect width="62" height="62" x="1" y="1" fill="#F1F1F1" fill-rule="evenodd" stroke="#979797"
                stroke-width="2" rx="4" /><text fill="#000" font-family="Helvetica" font-size="18">
                <tspan x="26.995" y="38">7</tspan>
            </text>
            <animate attributeName="opacity" values="0;1;1;1;1;1;1;1;1;1;" dur="5s" fill="freeze" />
        </g>
        <g transform="translate(288 97)" opacity="0">
            <rect width="62" height="62" x="1" y="1" fill="#F1F1F1" fill-rule="evenodd" stroke="#979797"
                stroke-width="2" rx="4" /><text fill="#000" font-family="Helvetica" font-size="18">
                <tspan x="26.995" y="38">2</tspan>
            </text>
            <animate attributeName="opacity" values="0;0;1;1;1;1;1;1;1;1;" dur="5s" fill="freeze" />
        </g>
        <g transform="translate(384 97)" opacity="0">
            <rect width="62" height="62" x="1" y="1" fill="#F1F1F1" fill-rule="evenodd" stroke="#979797"
                stroke-width="2" rx="4" /><text fill="#000" font-family="Helvetica" font-size="18">
                <tspan x="26.995" y="38">5</tspan>
            </text>
            <animate attributeName="opacity" values="0;0;0;1;1;1;1;1;1;1;" dur="5s" fill="freeze" />
        </g>
        <g transform="translate(480 97)" opacity="0">
            <rect width="62" height="62" x="1" y="1" fill="#F1F1F1" fill-rule="evenodd" stroke="#979797"
                stroke-width="2" rx="4" /><text fill="#000" font-family="Helvetica" font-size="18">
                <tspan x="26.995" y="38">6</tspan>
            </text>
            <animate attributeName="opacity" values="0;0;0;0;1;1;1;1;1;1;" dur="5s" fill="freeze" />
        </g>
        <g transform="translate(576 97)" opacity="0">
            <rect width="62" height="62" x="1" y="1" fill="#F1F1F1" fill-rule="evenodd" stroke="#979797"
                stroke-width="2" rx="4" /><text fill="#000" font-family="Helvetica" font-size="18">
                <tspan x="26.995" y="38">1</tspan>
            </text>
            <animate attributeName="opacity" values="0;0;0;0;0;1;1;1;1;1;" dur="5s" fill="freeze" />
        </g>
        <g transform="translate(672 97)" opacity="0">
            <rect width="62" height="62" x="1" y="1" fill="#F1F1F1" fill-rule="evenodd" stroke="#979797"
                stroke-width="2" rx="4" /><text fill="#000" font-family="Helvetica" font-size="18">
                <tspan x="26.995" y="38">3</tspan>
            </text>
            <animate attributeName="opacity" values="0;0;0;0;0;0;1;1;1;1;" dur="5s" fill="freeze" />
        </g>
        <g transform="translate(768 97)" opacity="0">
            <rect width="60" height="60" x="2" y="2" fill="#F1F1F1" fill-rule="evenodd" stroke="#979797" stroke-width="2" rx="4">
                <animate attributeName="fill" from="#F1F1F1" to="#b1f0d4" dur="1s" begin="10s" fill="freeze"/>
                <animate attributeName="stroke" from="#979797" to="#148b57" dur="1s" begin="10s" fill="freeze"/>
                <animate attributeName="stroke-width" from="2" to="4" dur="1s" begin="10s" fill="freeze" />
            </rect>
            <text fill="#000" font-family="Helvetica" font-size="18">
                <tspan x="26.995" y="38">4</tspan>
            </text>
            <animate attributeName="opacity" values="0;0;0;0;0;0;0;1;1;1;" dur="5s" fill="freeze" />
        </g>
        <g opacity="0">
            <rect width="701" height="125" x="161.5" y="66.5"  stroke="#888" stroke-dasharray="2 2" stroke-width="3" rx="4" />
            <animate attributeName="opacity" values="0;0;0;0;0;0;0;0;0;1;" dur="10s" fill="freeze" />
        </g>

        <!-- End of group 1 -->

        <g transform="translate(480 320)" opacity="0">
            <rect width="60" height="60" x="2" y="2" fill="#b1f0d4" fill-rule="evenodd" stroke="#148b57"
                stroke-width="4" rx="4" /><text fill="#000" font-family="Helvetica" font-size="18">
                <tspan x="26.995" y="38">4</tspan>
            </text>
            <animate attributeName="opacity" values="0;1;1;1;1;1;1;1;1;1;" dur="10s" begin="12s" fill="freeze" />
        </g>

        <g opacity="0">
            <path d="M468,348 L463.577709,350.211146 C462.589752,350.705124 462.189303,351.90647 462.683282,352.894427 C462.876809,353.281482 463.190654,353.595327 463.577709,353.788854 L468,356 L468,356" id="Path" stroke="#148b57" stroke-width="3" stroke-linecap="round"></path>
            <path d="M564,348 L559.577709,350.211146 C558.589752,350.705124 558.189303,351.90647 558.683282,352.894427 C558.876809,353.281482 559.190654,353.595327 559.577709,353.788854 L564,356 L564,356" id="Path" stroke="#148b57" stroke-width="3" stroke-linecap="round" transform="translate(560, 352) scale(-1, 1) translate(-560, -352)"></path>
            <animate attributeName="opacity" values="0;1;1;1;1;1;1;1;1;1;" dur="10s" begin="12s" fill="freeze" />
        </g>

        <g transform="translate(160 351)" opacity="0">
            <rect width="62" height="62" x="1" y="1" fill="#F1F1F1" fill-rule="evenodd" stroke="#979797"
                stroke-width="2" rx="4" /><text fill="#000" font-family="Helvetica" font-size="18">
                <tspan x="26.995" y="38">2</tspan>
            </text>
            <animate attributeName="opacity" values="0;0;0;1;1;1;1;1;1;1;" dur="10s" begin="12s" fill="freeze" />
        </g>

        <g transform="translate(256 351)" opacity="0">
            <rect width="62" height="62" x="1" y="1" fill="#F1F1F1" fill-rule="evenodd" stroke="#979797"
                stroke-width="2" rx="4" /><text fill="#000" font-family="Helvetica" font-size="18">
                <tspan x="26.995" y="38">1</tspan>
            </text>
            <animate attributeName="opacity" values="0;0;0;0;0;0;1;1;1;1;" dur="10s" begin="12s" fill="freeze" />
        </g>

        <g transform="translate(352 351)" opacity="0">
            <rect width="60" height="60" x="2" y="2" fill="#F1F1F1" fill-rule="evenodd" stroke="#979797" stroke-width="2" rx="4">
                <animate attributeName="fill" from="#F1F1F1" to="#b1f0d4" dur="1s" begin="22s" fill="freeze"/>
                <animate attributeName="stroke" from="#979797" to="#148b57" dur="1s" begin="22s" fill="freeze"/>
                <animate attributeName="stroke-width" from="2" to="4" dur="1s" begin="22s" fill="freeze" />
            </rect>
            <text fill="#000" font-family="Helvetica" font-size="18">
                <tspan x="26.995" y="38">3</tspan>
            </text>
            <animate attributeName="opacity" values="0;0;0;0;0;0;0;1;1;1;" dur="10s" begin="12s" fill="freeze" />
        </g>

        <g opacity="0">
            <rect width="317" height="125" x="129.5" y="321.5" stroke="#888" stroke-dasharray="2 2" stroke-width="3" rx="4" />
            <animate attributeName="opacity" values="0;0;0;0;0;0;0;0;0;1;" dur="10s" begin="12s" fill="freeze" />
        </g>

        <!-- End of group 2 -->

        <g transform="translate(320 576)" opacity="0">
            <rect width="60" height="60" x="2" y="2" fill="#b1f0d4" fill-rule="evenodd" stroke="#148b57" stroke-width="4" rx="4" />
            <text fill="#000" font-family="Helvetica" font-size="18">
                <tspan x="26.995" y="38">3</tspan>
            </text>
            <animate attributeName="opacity" values="0;1;1;1;1;1;1;1;1;1;" dur="10s" begin="22s" fill="freeze" />
        </g>

        <g opacity="0">
            <path d="M308,604 L303.577709,606.211146 C302.589752,606.705124 302.189303,607.90647 302.683282,608.894427 C302.876809,609.281482 303.190654,609.595327 303.577709,609.788854 L308,612 L308,612" id="Path" stroke="#148b57" stroke-width="3" stroke-linecap="round"></path>
            <path d="M404,604 L399.577709,606.211146 C398.589752,606.705124 398.189303,607.90647 398.683282,608.894427 C398.876809,609.281482 399.190654,609.595327 399.577709,609.788854 L404,612 L404,612" id="Path" stroke="#148b57" stroke-width="3" stroke-linecap="round" transform="translate(400, 608) scale(-1, 1) translate(-400, -608)"></path>
            <animate attributeName="opacity" values="0;1;1;1;1;1;1;1;1;1;" dur="10s" begin="22s" fill="freeze" />
        </g>

        <g transform="translate(80 608)" opacity="0">
            <rect width="62" height="62" x="1" y="1" fill="#F1F1F1" fill-rule="evenodd" stroke="#979797"
                stroke-width="2" rx="4" /><text fill="#000" font-family="Helvetica" font-size="18">
                <tspan x="26.995" y="38">2</tspan>
            </text>
            <animate attributeName="opacity" values="0;0;1;1;1;1;1;1;1;1;" dur="10s" begin="22s" fill="freeze" />
        </g>

        <g transform="translate(176 608)" opacity="0">
            <rect width="60" height="60" x="2" y="2" fill="#F1F1F1" fill-rule="evenodd" stroke="#979797" stroke-width="2" rx="4">
                <animate attributeName="fill" from="#F1F1F1" to="#b1f0d4" dur="1s" begin="25s" fill="freeze"/>
                <animate attributeName="stroke" from="#979797" to="#148b57" dur="1s" begin="25s" fill="freeze"/>
                <animate attributeName="stroke-width" from="2" to="4" dur="1s" begin="25s" fill="freeze" />
            </rect>
            <text fill="#000" font-family="Helvetica" font-size="18">
                <tspan x="26.995" y="38">1</tspan>
            </text>
            <animate attributeName="opacity" values="0;0;0;1;1;1;1;1;1;1;" dur="10s" begin="22s" fill="freeze" />
        </g>


        <g opacity="0">
            <rect width="253" height="125" x="33.5" y="577.5" stroke="#888" stroke-dasharray="2 2" stroke-width="3" rx="4" />
            <animate attributeName="opacity" values="1;1;1;1;1;1;1;1;1;1;" dur="10s" begin="25s" fill="freeze" />
        </g>

        <!-- End of group 3 -->


        <g transform="translate(128 832)" opacity="0">
            <rect width="60" height="60" x="2" y="2" fill="#b1f0d4" fill-rule="evenodd" stroke="#148b57" stroke-width="4" rx="4" />
            <text fill="#000" font-family="Helvetica" font-size="18">
                <tspan x="26.995" y="38">1</tspan>
            </text>
            <animate attributeName="opacity" values="0;1;1;1;1;1;1;1;1;1;" dur="10s" begin="27s" fill="freeze" />
        </g>

        <g opacity="0">
            <path d="M116,860 L111.577709,862.211146 C110.589752,862.705124 110.189303,863.90647 110.683282,864.894427 C110.876809,865.281482 111.190654,865.595327 111.577709,865.788854 L116,868 L116,868" id="Path" stroke="#148b57" stroke-width="3" stroke-linecap="round"></path>
            <path d="M212,860 L207.577709,862.211146 C206.589752,862.705124 206.189303,863.90647 206.683282,864.894427 C206.876809,865.281482 207.190654,865.595327 207.577709,865.788854 L212,868 L212,868" id="Path" stroke="#148b57" stroke-width="3" stroke-linecap="round" transform="translate(208, 864) scale(-1, 1) translate(-208, -864)"></path>
            <animate attributeName="opacity" values="0;0;1;1;1;1;1;1;1;1;" dur="10s" begin="27s" fill="freeze" />
        </g>

        <g transform="translate(256 864)" opacity="0">
            <rect width="62" height="62" x="1" y="1" fill="#F1F1F1" fill-rule="evenodd" stroke="#979797"
                stroke-width="2" rx="4" /><text fill="#000" font-family="Helvetica" font-size="18">
                <tspan x="26.995" y="38">2</tspan>
            </text>
            <animate attributeName="opacity" values="0;0;1;1;1;1;1;1;1;1;" dur="10s" begin="27s" fill="freeze" />
        </g>

        <g opacity="0">
            <rect width="125" height="125" x="225.5" y="833.5" stroke="#888" stroke-dasharray="2 2" stroke-width="3" rx="4" />
            <animate attributeName="opacity" values="0;0;0;1;1;1;1;1;1;1;" dur="10s" begin="27s" fill="freeze" />
        </g>

        <!-- End of group 4 -->

        <g transform="translate(608 351)" opacity="0">
            <rect width="62" height="62" x="1" y="1" fill="#F1F1F1" fill-rule="evenodd" stroke="#979797"
                stroke-width="2" rx="4" /><text fill="#000" font-family="Helvetica" font-size="18">
                <tspan x="26.995" y="38">7</tspan>
            </text>
            <animate attributeName="opacity" values="0;0;1;1;1;1;1;1;1;1;" dur="10s" begin="12s" fill="freeze" />
        </g>

        <g transform="translate(704 351)" opacity="0">
            <rect width="62" height="62" x="1" y="1" fill="#F1F1F1" fill-rule="evenodd" stroke="#979797"
                stroke-width="2" rx="4" /><text fill="#000" font-family="Helvetica" font-size="18">
                <tspan x="26.995" y="38">5</tspan>
            </text>
            <animate attributeName="opacity" values="0;0;0;0;1;1;1;1;1;1;" dur="10s" begin="12s" fill="freeze" />
        </g>

        <g transform="translate(800 351)" opacity="0">
            <rect width="60" height="60" x="2" y="2" fill="#F1F1F1" fill-rule="evenodd" stroke="#979797" stroke-width="2" rx="4">
                <animate attributeName="fill" from="#F1F1F1" to="#b1f0d4" dur="1s" begin="32s" fill="freeze"/>
                <animate attributeName="stroke" from="#979797" to="#148b57" dur="1s" begin="32s" fill="freeze"/>
                <animate attributeName="stroke-width" from="2" to="4" dur="1s" begin="32s" fill="freeze" />
            </rect>
            <text fill="#000" font-family="Helvetica" font-size="18">
                <tspan x="26.995" y="38">6</tspan>
            </text>
            <animate attributeName="opacity" values="0;0;0;0;0;1;1;1;1;1;" dur="10s" begin="12s" fill="freeze" />
        </g>

        <g opacity="0">
            <rect width="317" height="125" x="577.5" y="321.5" stroke="#888" stroke-dasharray="2 2" stroke-width="3" rx="4" /> 
            <animate attributeName="opacity" values="1;1;1;1;1;1;1;1;1;1;" dur="10s" begin="32s" fill="freeze" />
        </g>


        <!-- End of group 5 -->

        <g transform="translate(704 576)" opacity="0">
            <rect width="60" height="60" x="2" y="2" fill="#b1f0d4" fill-rule="evenodd" stroke="#148b57" stroke-width="4" rx="4" />
            <text fill="#000" font-family="Helvetica" font-size="18">
                <tspan x="26.995" y="38">6</tspan>
            </text>
            <animate attributeName="opacity" values="0;1;1;1;1;1;1;1;1;1;" dur="10s" begin="35s" fill="freeze" />
        </g>

        <g opacity="0">
            <path d="M692,604 L687.577709,606.211146 C686.589752,606.705124 686.189303,607.90647 686.683282,608.894427 C686.876809,609.281482 687.190654,609.595327 687.577709,609.788854 L692,612 L692,612" id="Path" stroke="#148b57" stroke-width="3" stroke-linecap="round"></path>
            <path d="M788,604 L783.577709,606.211146 C782.589752,606.705124 782.189303,607.90647 782.683282,608.894427 C782.876809,609.281482 783.190654,609.595327 783.577709,609.788854 L788,612 L788,612" id="Path" stroke="#148b57" stroke-width="3" stroke-linecap="round" transform="translate(784, 608) scale(-1, 1) translate(-784, -608)"></path>
            <animate attributeName="opacity" values="0;1;1;1;1;1;1;1;1;1;" dur="10s" begin="35s" fill="freeze" />
        </g>



        <g transform="translate(576 608)" opacity="0">
            <rect width="62" height="62" x="1" y="1" fill="#F1F1F1" fill-rule="evenodd" stroke="#979797"
                stroke-width="2" rx="4" /><text fill="#000" font-family="Helvetica" font-size="18">
                <tspan x="26.995" y="38">5</tspan>
            </text>
            <animate attributeName="opacity" values="0;0;1;1;1;1;1;1;1;1;" dur="10s" begin="35s" fill="freeze" />
        </g>

        <g opacity="0">
        <rect width="125" height="125" x="545.5" y="577.5" stroke="#888" stroke-dasharray="2 2" stroke-width="3" rx="4" />
            <animate attributeName="opacity" values="0;0;0;1;1;1;1;1;1;1;" dur="10s" begin="35s" fill="freeze" />
        </g>


        <g transform="translate(832 608)" opacity="0">
            <rect width="62" height="62" x="1" y="1" fill="#F1F1F1" fill-rule="evenodd" stroke="#979797"
                stroke-width="2" rx="4" /><text fill="#000" font-family="Helvetica" font-size="18">
                <tspan x="26.995" y="38">7</tspan>
            </text>
            <animate attributeName="opacity" values="0;0;0;0;1;1;1;1;1;1;" dur="10s" begin="35s" fill="freeze" />
        </g>

        <g opacity="0">
            <rect width="125" height="125" x="801.5" y="577.5" stroke="#888" stroke-dasharray="2 2" stroke-width="3" rx="4" />
            <animate attributeName="opacity" values="0;0;0;0;0;1;1;1;1;1;" dur="10s" begin="35s" fill="freeze" />
        </g>


        <!-- End of group 6 -->

    </g>
</svg>