<?xml version="1.0" encoding="UTF-8"?>
<svg width="1024px" height="1024px" viewBox="0 0 1024 1024" version="1.1" xmlns="http://www.w3.org/2000/svg" xmlns:xlink="http://www.w3.org/1999/xlink">
    <title>HeapSort-06</title>
    <defs>
        <path d="M30,0 L994,0 C1010.56854,-3.55271368e-15 1024,13.4314575 1024,30 L1024,994 C1024,1010.56854 1010.56854,1024 994,1024 L30,1024 C13.4314575,1024 0,1010.56854 0,994 L0,30 C-3.55271368e-15,13.4314575 13.4314575,3.55271368e-15 30,0 Z" id="path-1"></path>
        <rect id="path-2" x="160" y="64" width="704" height="160" rx="4"></rect>
        <mask id="mask-3" maskContentUnits="userSpaceOnUse" maskUnits="objectBoundingBox" x="0" y="0" width="704" height="160" fill="white">
            <use xlink:href="#path-2"></use>
        </mask>
        <path d="M0,0 L64,0 L64,64 L0,64 L0,0 Z" id="path-4"></path>
        <path d="M0,0 L64,0 L64,64 L0,64 L0,0 Z" id="path-5"></path>
        <path d="M0,0 L64,0 L64,64 L0,64 L0,0 Z" id="path-6"></path>
        <path d="M0,0 L64,0 L64,64 L0,64 L0,0 Z" id="path-7"></path>
        <path d="M0,0 L64,0 L64,64 L0,64 L0,0 Z" id="path-8"></path>
        <path d="M0,0 L64,0 L64,64 L0,64 L0,0 Z" id="path-9"></path>
        <path d="M0,0 L64,0 L64,64 L0,64 L0,0 Z" id="path-10"></path>
        <path d="M0,0 L64,0 L64,64 L0,64 L0,0 Z" id="path-11"></path>
        <path d="M0,0 L64,0 L64,64 L0,64 L0,0 Z" id="path-12"></path>
        <path d="M0,0 L64,0 L64,64 L0,64 L0,0 Z" id="path-13"></path>
        <path d="M0,0 L64,0 L64,64 L0,64 L0,0 Z" id="path-14"></path>
        <path d="M0,0 L64,0 L64,64 L0,64 L0,0 Z" id="path-15"></path>
        <path d="M0,0 L64,0 L64,64 L0,64 L0,0 Z" id="path-16"></path>
        <path d="M0,0 L64,0 L64,64 L0,64 L0,0 Z" id="path-17"></path>
    </defs>
    <g id="HeapSort-06" stroke="none" fill="none" xlink:href="#path-1">
        <path stroke="#888888" stroke-width="1" d="M994,0.5 C1002.1462,0.5 1009.5212,3.80189997 1014.85965,9.14034996 C1020.1981,14.4787999 1023.5,21.8537999 1023.5,30 L1023.5,994 C1023.5,1002.1462 1020.1981,1009.5212 1014.85965,1014.85965 C1009.5212,1020.1981 1002.1462,1023.5 994,1023.5 L30,1023.5 C21.8537999,1023.5 14.4787999,1020.1981 9.14034996,1014.85965 C3.80189997,1009.5212 0.5,1002.1462 0.5,994 L0.5,30 C0.5,21.8537999 3.80189997,14.4787999 9.14034996,9.14034996 C14.4787999,3.80189997 21.8537999,0.5 30,0.5 L994,0.5 Z" stroke-linejoin="square"></path>
        <use id="Rectangle" stroke="#888888" mask="url(#mask-3)" stroke-width="6" stroke-linecap="square" stroke-dasharray="2,8" xlink:href="#path-2"></use>
        <g id="cell" transform="translate(288, 96)" xlink:href="#path-4">
            <rect id="Rectangle" stroke="#979797" stroke-width="2" fill="#F1F1F1" fill-rule="evenodd" x="1" y="1" width="62" height="62" rx="4"></rect>
            <text id="number" font-family="Helvetica" font-size="18" font-weight="normal" fill="#000000">
                <tspan x="26.9946289" y="34">2</tspan>
            </text>
        </g>
        <g id="cell" transform="translate(192, 96)" xlink:href="#path-5">
            <rect id="Rectangle" stroke="#979797" stroke-width="2" fill="#F1F1F1" fill-rule="evenodd" x="1" y="1" width="62" height="62" rx="4"></rect>
            <text id="number" font-family="Helvetica" font-size="18" font-weight="normal" fill="#000000">
                <tspan x="26.9946289" y="34">1</tspan>
            </text>
        </g>
        <g id="cell" transform="translate(384, 96)" xlink:href="#path-6">
            <rect id="Rectangle" stroke="#6DD400" stroke-width="4" fill="#F1F1F1" fill-rule="evenodd" x="2" y="2" width="60" height="60" rx="4"></rect>
            <text id="number" font-family="Helvetica" font-size="18" font-weight="normal" fill="#000000">
                <tspan x="26.9946289" y="34">3</tspan>
            </text>
        </g>
        <g id="cell" transform="translate(480, 96)" xlink:href="#path-7">
            <rect id="Rectangle" stroke="#6DD400" stroke-width="4" fill="#F1F1F1" fill-rule="evenodd" x="2" y="2" width="60" height="60" rx="4"></rect>
            <text id="number" font-family="Helvetica" font-size="18" font-weight="normal" fill="#000000">
                <tspan x="26.9946289" y="34">4</tspan>
            </text>
        </g>
        <g id="cell" transform="translate(576, 96)" xlink:href="#path-8">
            <rect id="Rectangle" stroke="#6DD400" stroke-width="4" fill="#F1F1F1" fill-rule="evenodd" x="2" y="2" width="60" height="60" rx="4"></rect>
            <text id="number" font-family="Helvetica" font-size="18" font-weight="normal" fill="#000000">
                <tspan x="26.9946289" y="34">5</tspan>
            </text>
        </g>
        <g id="cell" transform="translate(672, 96)" xlink:href="#path-9">
            <rect id="Rectangle" stroke="#6DD400" stroke-width="4" fill="#F1F1F1" fill-rule="evenodd" x="2" y="2" width="60" height="60" rx="4"></rect>
            <text id="number" font-family="Helvetica" font-size="18" font-weight="normal" fill="#000000">
                <tspan x="26.9946289" y="34">6</tspan>
            </text>
        </g>
        <g id="cell" transform="translate(768, 96)" xlink:href="#path-10">
            <rect id="Rectangle" stroke="#6DD400" stroke-width="4" fill="#F1F1F1" fill-rule="evenodd" x="2" y="2" width="60" height="60" rx="4"></rect>
            <text id="number" font-family="Helvetica" font-size="18" font-weight="normal" fill="#000000">
                <tspan x="26.9946289" y="34">7</tspan>
            </text>
        </g>
        <text id="0" font-family="Helvetica-Bold, Helvetica" font-size="12" font-weight="bold" fill="#007AFF">
            <tspan x="220.663086" y="187">0</tspan>
        </text>
        <text id="0" font-family="Helvetica-Bold, Helvetica" font-size="12" font-weight="bold" fill="#007AFF">
            <tspan x="204.663086" y="355">0</tspan>
        </text>
        <text id="1" font-family="Helvetica-Bold, Helvetica" font-size="12" font-weight="bold" fill="#007AFF">
            <tspan x="108.663086" y="451">1</tspan>
        </text>
        <text id="1" font-family="Helvetica-Bold, Helvetica" font-size="12" font-weight="bold" fill="#007AFF">
            <tspan x="316.663086" y="187">1</tspan>
        </text>
        <text id="2" font-family="Helvetica-Bold, Helvetica" font-size="12" font-weight="bold" fill="#007AFF">
            <tspan x="412.663086" y="187">2</tspan>
        </text>
        <text id="3" font-family="Helvetica-Bold, Helvetica" font-size="12" font-weight="bold" fill="#007AFF">
            <tspan x="508.663086" y="187">3</tspan>
        </text>
        <text id="4" font-family="Helvetica-Bold, Helvetica" font-size="12" font-weight="bold" fill="#007AFF">
            <tspan x="604.663086" y="187">4</tspan>
        </text>
        <text id="6" font-family="Helvetica-Bold, Helvetica" font-size="12" font-weight="bold" fill="#007AFF">
            <tspan x="796.663086" y="187">6</tspan>
        </text>
        <text id="5" font-family="Helvetica-Bold, Helvetica" font-size="12" font-weight="bold" fill="#007AFF">
            <tspan x="700.663086" y="187">5</tspan>
        </text>
        <g id="node" transform="translate(224, 320)" xlink:href="#path-11">
            <rect id="Rectangle" stroke="#979797" stroke-width="2" fill="#F1F1F1" fill-rule="evenodd" x="1" y="1" width="62" height="62" rx="31"></rect>
            <text id="number" font-family="Helvetica" font-size="18" font-weight="normal" fill="#000000">
                <tspan x="26.9946289" y="34">1</tspan>
            </text>
        </g>
        <g id="node" transform="translate(128, 416)" xlink:href="#path-12">
            <rect id="Rectangle" stroke="#979797" stroke-width="2" fill="#F1F1F1" fill-rule="evenodd" x="1" y="1" width="62" height="62" rx="31"></rect>
            <text id="number" font-family="Helvetica" font-size="18" font-weight="normal" fill="#000000">
                <tspan x="26.9946289" y="34">2</tspan>
            </text>
        </g>
        <line x1="232" y1="376.341797" x2="184" y2="424.018982" id="Path" stroke="#979797" stroke-width="1"></line>
        <line x1="232" y1="376.341797" x2="184" y2="424.018982" id="Path" stroke="#979797" stroke-width="1"></line>
        <text id="0" font-family="Helvetica-Bold, Helvetica" font-size="12" font-weight="bold" fill="#007AFF">
            <tspan x="732.663086" y="739">0</tspan>
        </text>
        <text id="1" font-family="Helvetica-Bold, Helvetica" font-size="12" font-weight="bold" fill="#007AFF">
            <tspan x="636.663086" y="835">1</tspan>
        </text>
        <g id="node" transform="translate(752, 704)" xlink:href="#path-13">
            <rect id="Rectangle" stroke="#979797" stroke-width="2" fill="#F1F1F1" fill-rule="evenodd" x="1" y="1" width="62" height="62" rx="31"></rect>
            <text id="number" font-family="Helvetica" font-size="18" font-weight="normal" fill="#000000">
                <tspan x="26.9946289" y="34">1</tspan>
            </text>
        </g>
        <g id="node" transform="translate(656, 800)" xlink:href="#path-14">
            <rect id="Rectangle" stroke="#007AFF" stroke-width="4" fill="#F1F1F1" fill-rule="evenodd" x="2" y="2" width="60" height="60" rx="30"></rect>
            <text id="number" font-family="Helvetica" font-size="18" font-weight="normal" fill="#000000">
                <tspan x="26.9946289" y="34">2</tspan>
            </text>
        </g>
        <line x1="760" y1="760.341797" x2="712" y2="808.018982" id="Path" stroke="#979797" stroke-width="1"></line>
        <line x1="760" y1="760.341797" x2="712" y2="808.018982" id="Path" stroke="#979797" stroke-width="1"></line>
        <text id="0" font-family="Helvetica-Bold, Helvetica" font-size="12" font-weight="bold" fill="#007AFF">
            <tspan x="204.663086" y="739">0</tspan>
        </text>
        <g id="node" transform="translate(224, 704)" xlink:href="#path-15">
            <rect id="Rectangle" stroke="#979797" stroke-width="2" fill="#F1F1F1" fill-rule="evenodd" x="1" y="1" width="62" height="62" rx="31"></rect>
            <text id="number" font-family="Helvetica" font-size="18" font-weight="normal" fill="#000000">
                <tspan x="26.9946289" y="34">1</tspan>
            </text>
        </g>
        <text id="0" font-family="Helvetica-Bold, Helvetica" font-size="12" font-weight="bold" fill="#007AFF">
            <tspan x="732.663086" y="355">0</tspan>
        </text>
        <text id="1" font-family="Helvetica-Bold, Helvetica" font-size="12" font-weight="bold" fill="#007AFF">
            <tspan x="636.663086" y="451">1</tspan>
        </text>
        <g id="node" transform="translate(752, 320)" xlink:href="#path-16">
            <rect id="Rectangle" stroke="#6DD400" stroke-width="4" fill="#F1F1F1" fill-rule="evenodd" x="2" y="2" width="60" height="60" rx="30"></rect>
            <text id="number" font-family="Helvetica" font-size="18" font-weight="normal" fill="#000000">
                <tspan x="26.9946289" y="34">2</tspan>
            </text>
        </g>
        <g id="node" transform="translate(656, 416)" xlink:href="#path-17">
            <rect id="Rectangle" stroke="#979797" stroke-width="2" fill="#F1F1F1" fill-rule="evenodd" x="1" y="1" width="62" height="62" rx="31"></rect>
            <text id="number" font-family="Helvetica" font-size="18" font-weight="normal" fill="#000000">
                <tspan x="26.9946289" y="34">1</tspan>
            </text>
        </g>
        <line x1="760" y1="376.341797" x2="712" y2="424.018982" id="Path" stroke="#979797" stroke-width="1"></line>
        <line x1="760" y1="376.341797" x2="712" y2="424.018982" id="Path" stroke="#979797" stroke-width="1"></line>
        <text id="Swap-to-Last" font-family="Helvetica-Bold, Helvetica" font-size="16" font-weight="bold" fill="#32ADE6">
            <tspan x="735.160156" y="693">Swap to Last</tspan>
        </text>
        <text id="Create-Heap" font-family="Helvetica-Bold, Helvetica" font-size="16" font-weight="bold" fill="#32ADE6">
            <tspan x="209.3125" y="309">Create Heap</tspan>
        </text>
        <text id="Remove-from-Heap" font-family="Helvetica-Bold, Helvetica" font-size="16" font-weight="bold" fill="#32ADE6">
            <tspan x="183.089844" y="693">Remove from Heap</tspan>
        </text>
        <text id="Find-Max" font-family="Helvetica-Bold, Helvetica" font-size="16" font-weight="bold" fill="#32ADE6">
            <tspan x="748.832031" y="309">Find Max</tspan>
        </text>
        <path d="M513,440 L543,440 C543.552285,440 544,439.552285 544,439 L544,426 C544,425.447715 544.447715,425 545,425 C545.21637,425 545.426904,425.070178 545.6,425.2 L574.933333,447.2 C575.375161,447.531371 575.464704,448.158172 575.133333,448.6 C575.076479,448.675806 575.009139,448.743146 574.933333,448.8 L545.6,470.8 C545.158172,471.131371 544.531371,471.041828 544.2,470.6 C544.070178,470.426904 544,470.21637 544,470 L544,457 C544,456.447715 543.552285,456 543,456 L513,456 C512.447715,456 512,455.552285 512,455 L512,441 C512,440.447715 512.447715,440 513,440 Z" id="Path" fill="#32ADE6" fill-rule="evenodd"></path>
        <path d="M761,616 L791,616 C791.552285,616 792,615.552285 792,615 L792,602 C792,601.447715 792.447715,601 793,601 C793.21637,601 793.426904,601.070178 793.6,601.2 L822.933333,623.2 C823.375161,623.531371 823.464704,624.158172 823.133333,624.6 C823.076479,624.675806 823.009139,624.743146 822.933333,624.8 L793.6,646.8 C793.158172,647.131371 792.531371,647.041828 792.2,646.6 C792.070178,646.426904 792,646.21637 792,646 L792,633 C792,632.447715 791.552285,632 791,632 L761,632 C760.447715,632 760,631.552285 760,631 L760,617 C760,616.447715 760.447715,616 761,616 Z" id="Path" fill="#32ADE6" fill-rule="evenodd" transform="translate(792, 624) rotate(90) translate(-792, -624)"></path>
        <path d="M513,824 L543,824 C543.552285,824 544,823.552285 544,823 L544,810 C544,809.447715 544.447715,809 545,809 C545.21637,809 545.426904,809.070178 545.6,809.2 L574.933333,831.2 C575.375161,831.531371 575.464704,832.158172 575.133333,832.6 C575.076479,832.675806 575.009139,832.743146 574.933333,832.8 L545.6,854.8 C545.158172,855.131371 544.531371,855.041828 544.2,854.6 C544.070178,854.426904 544,854.21637 544,854 L544,841 C544,840.447715 543.552285,840 543,840 L513,840 C512.447715,840 512,839.552285 512,839 L512,825 C512,824.447715 512.447715,824 513,824 Z" id="Path" fill="#32ADE6" fill-rule="evenodd" transform="translate(544, 832) scale(-1, 1) translate(-544, -832)"></path>
    </g>
</svg>