<?xml version="1.0" encoding="UTF-8"?>
<svg width="1024px" height="1024px" viewBox="0 0 1024 1024" version="1.1" xmlns="http://www.w3.org/2000/svg" xmlns:xlink="http://www.w3.org/1999/xlink">
    <title>HeapSort-05</title>
    <defs>
        <path d="M30,0 L994,0 C1010.56854,-3.55271368e-15 1024,13.4314575 1024,30 L1024,994 C1024,1010.56854 1010.56854,1024 994,1024 L30,1024 C13.4314575,1024 0,1010.56854 0,994 L0,30 C-3.55271368e-15,13.4314575 13.4314575,3.55271368e-15 30,0 Z" id="path-1"></path>
        <rect id="path-2" x="160" y="64" width="704" height="160" rx="4"></rect>
        <mask id="mask-3" maskContentUnits="userSpaceOnUse" maskUnits="objectBoundingBox" x="0" y="0" width="704" height="160" fill="white">
            <use xlink:href="#path-2"></use>
        </mask>
        <path d="M0,0 L64,0 L64,64 L0,64 L0,0 Z" id="path-4"></path>
        <path d="M0,0 L64,0 L64,64 L0,64 L0,0 Z" id="path-5"></path>
        <path d="M0,0 L64,0 L64,64 L0,64 L0,0 Z" id="path-6"></path>
        <path d="M0,0 L64,0 L64,64 L0,64 L0,0 Z" id="path-7"></path>
        <path d="M0,0 L64,0 L64,64 L0,64 L0,0 Z" id="path-8"></path>
        <path d="M0,0 L64,0 L64,64 L0,64 L0,0 Z" id="path-9"></path>
        <path d="M0,0 L64,0 L64,64 L0,64 L0,0 Z" id="path-10"></path>
        <path d="M0,0 L64,0 L64,64 L0,64 L0,0 Z" id="path-11"></path>
        <path d="M0,0 L64,0 L64,64 L0,64 L0,0 Z" id="path-12"></path>
        <path d="M0,0 L64,0 L64,64 L0,64 L0,0 Z" id="path-13"></path>
        <path d="M0,0 L64,0 L64,64 L0,64 L0,0 Z" id="path-14"></path>
        <path d="M0,0 L64,0 L64,64 L0,64 L0,0 Z" id="path-15"></path>
        <path d="M0,0 L64,0 L64,64 L0,64 L0,0 Z" id="path-16"></path>
        <path d="M0,0 L64,0 L64,64 L0,64 L0,0 Z" id="path-17"></path>
        <path d="M0,0 L64,0 L64,64 L0,64 L0,0 Z" id="path-18"></path>
        <path d="M0,0 L64,0 L64,64 L0,64 L0,0 Z" id="path-19"></path>
        <path d="M0,0 L64,0 L64,64 L0,64 L0,0 Z" id="path-20"></path>
        <path d="M0,0 L64,0 L64,64 L0,64 L0,0 Z" id="path-21"></path>
    </defs>
    <g id="HeapSort-05" stroke="none" fill="none" xlink:href="#path-1">
        <path stroke="#888888" stroke-width="1" d="M994,0.5 C1002.1462,0.5 1009.5212,3.80189997 1014.85965,9.14034996 C1020.1981,14.4787999 1023.5,21.8537999 1023.5,30 L1023.5,994 C1023.5,1002.1462 1020.1981,1009.5212 1014.85965,1014.85965 C1009.5212,1020.1981 1002.1462,1023.5 994,1023.5 L30,1023.5 C21.8537999,1023.5 14.4787999,1020.1981 9.14034996,1014.85965 C3.80189997,1009.5212 0.5,1002.1462 0.5,994 L0.5,30 C0.5,21.8537999 3.80189997,14.4787999 9.14034996,9.14034996 C14.4787999,3.80189997 21.8537999,0.5 30,0.5 L994,0.5 Z" stroke-linejoin="square"></path>
        <use id="Rectangle" stroke="#888888" mask="url(#mask-3)" stroke-width="6" stroke-linecap="square" stroke-dasharray="2,8" xlink:href="#path-2"></use>
        <g id="cell" transform="translate(288, 96)" xlink:href="#path-4">
            <rect id="Rectangle" stroke="#979797" stroke-width="2" fill="#F1F1F1" fill-rule="evenodd" x="1" y="1" width="62" height="62" rx="4"></rect>
            <text id="number" font-family="Helvetica" font-size="18" font-weight="normal" fill="#000000">
                <tspan x="26.9946289" y="34">2</tspan>
            </text>
        </g>
        <g id="cell" transform="translate(192, 96)" xlink:href="#path-5">
            <rect id="Rectangle" stroke="#979797" stroke-width="2" fill="#F1F1F1" fill-rule="evenodd" x="1" y="1" width="62" height="62" rx="4"></rect>
            <text id="number" font-family="Helvetica" font-size="18" font-weight="normal" fill="#000000">
                <tspan x="26.9946289" y="34">3</tspan>
            </text>
        </g>
        <g id="cell" transform="translate(384, 96)" xlink:href="#path-6">
            <rect id="Rectangle" stroke="#979797" stroke-width="2" fill="#F1F1F1" fill-rule="evenodd" x="1" y="1" width="62" height="62" rx="4"></rect>
            <text id="number" font-family="Helvetica" font-size="18" font-weight="normal" fill="#000000">
                <tspan x="26.9946289" y="34">1</tspan>
            </text>
        </g>
        <g id="cell" transform="translate(480, 96)" xlink:href="#path-7">
            <rect id="Rectangle" stroke="#6DD400" stroke-width="4" fill="#F1F1F1" fill-rule="evenodd" x="2" y="2" width="60" height="60" rx="4"></rect>
            <text id="number" font-family="Helvetica" font-size="18" font-weight="normal" fill="#000000">
                <tspan x="26.9946289" y="34">4</tspan>
            </text>
        </g>
        <g id="cell" transform="translate(576, 96)" xlink:href="#path-8">
            <rect id="Rectangle" stroke="#6DD400" stroke-width="4" fill="#F1F1F1" fill-rule="evenodd" x="2" y="2" width="60" height="60" rx="4"></rect>
            <text id="number" font-family="Helvetica" font-size="18" font-weight="normal" fill="#000000">
                <tspan x="26.9946289" y="34">5</tspan>
            </text>
        </g>
        <g id="cell" transform="translate(672, 96)" xlink:href="#path-9">
            <rect id="Rectangle" stroke="#6DD400" stroke-width="4" fill="#F1F1F1" fill-rule="evenodd" x="2" y="2" width="60" height="60" rx="4"></rect>
            <text id="number" font-family="Helvetica" font-size="18" font-weight="normal" fill="#000000">
                <tspan x="26.9946289" y="34">6</tspan>
            </text>
        </g>
        <g id="cell" transform="translate(768, 96)" xlink:href="#path-10">
            <rect id="Rectangle" stroke="#6DD400" stroke-width="4" fill="#F1F1F1" fill-rule="evenodd" x="2" y="2" width="60" height="60" rx="4"></rect>
            <text id="number" font-family="Helvetica" font-size="18" font-weight="normal" fill="#000000">
                <tspan x="26.9946289" y="34">7</tspan>
            </text>
        </g>
        <text id="0" font-family="Helvetica-Bold, Helvetica" font-size="12" font-weight="bold" fill="#007AFF">
            <tspan x="220.663086" y="187">0</tspan>
        </text>
        <text id="0" font-family="Helvetica-Bold, Helvetica" font-size="12" font-weight="bold" fill="#007AFF">
            <tspan x="204.663086" y="355">0</tspan>
        </text>
        <text id="1" font-family="Helvetica-Bold, Helvetica" font-size="12" font-weight="bold" fill="#007AFF">
            <tspan x="108.663086" y="451">1</tspan>
        </text>
        <text id="2" font-family="Helvetica-Bold, Helvetica" font-size="12" font-weight="bold" fill="#007AFF">
            <tspan x="396.663086" y="451">2</tspan>
        </text>
        <text id="1" font-family="Helvetica-Bold, Helvetica" font-size="12" font-weight="bold" fill="#007AFF">
            <tspan x="316.663086" y="187">1</tspan>
        </text>
        <text id="2" font-family="Helvetica-Bold, Helvetica" font-size="12" font-weight="bold" fill="#007AFF">
            <tspan x="412.663086" y="187">2</tspan>
        </text>
        <text id="3" font-family="Helvetica-Bold, Helvetica" font-size="12" font-weight="bold" fill="#007AFF">
            <tspan x="508.663086" y="187">3</tspan>
        </text>
        <text id="4" font-family="Helvetica-Bold, Helvetica" font-size="12" font-weight="bold" fill="#007AFF">
            <tspan x="604.663086" y="187">4</tspan>
        </text>
        <text id="6" font-family="Helvetica-Bold, Helvetica" font-size="12" font-weight="bold" fill="#007AFF">
            <tspan x="796.663086" y="187">6</tspan>
        </text>
        <text id="5" font-family="Helvetica-Bold, Helvetica" font-size="12" font-weight="bold" fill="#007AFF">
            <tspan x="700.663086" y="187">5</tspan>
        </text>
        <g id="node" transform="translate(224, 320)" xlink:href="#path-11">
            <rect id="Rectangle" stroke="#979797" stroke-width="2" fill="#F1F1F1" fill-rule="evenodd" x="1" y="1" width="62" height="62" rx="31"></rect>
            <text id="number" font-family="Helvetica" font-size="18" font-weight="normal" fill="#000000">
                <tspan x="26.9946289" y="34">3</tspan>
            </text>
        </g>
        <g id="node" transform="translate(128, 416)" xlink:href="#path-12">
            <rect id="Rectangle" stroke="#979797" stroke-width="2" fill="#F1F1F1" fill-rule="evenodd" x="1" y="1" width="62" height="62" rx="31"></rect>
            <text id="number" font-family="Helvetica" font-size="18" font-weight="normal" fill="#000000">
                <tspan x="26.9946289" y="34">2</tspan>
            </text>
        </g>
        <g id="node" transform="translate(320, 416)" xlink:href="#path-13">
            <rect id="Rectangle" stroke="#979797" stroke-width="2" fill="#F1F1F1" fill-rule="evenodd" x="1" y="1" width="62" height="62" rx="31"></rect>
            <text id="number" font-family="Helvetica" font-size="18" font-weight="normal" fill="#000000">
                <tspan x="26.9946289" y="34">1</tspan>
            </text>
        </g>
        <line x1="232" y1="376.341797" x2="184" y2="424.018982" id="Path" stroke="#979797" stroke-width="1"></line>
        <line x1="232" y1="376.341797" x2="184" y2="424.018982" id="Path" stroke="#979797" stroke-width="1"></line>
        <line x1="328" y1="376.341797" x2="280" y2="424.018982" id="Path" stroke="#979797" stroke-width="1" transform="translate(304, 400.1804) scale(-1, 1) translate(-304, -400.1804)"></line>
        <text id="0" font-family="Helvetica-Bold, Helvetica" font-size="12" font-weight="bold" fill="#007AFF">
            <tspan x="204.663086" y="739">0</tspan>
        </text>
        <text id="1" font-family="Helvetica-Bold, Helvetica" font-size="12" font-weight="bold" fill="#007AFF">
            <tspan x="108.663086" y="835">1</tspan>
        </text>
        <text id="2" font-family="Helvetica-Bold, Helvetica" font-size="12" font-weight="bold" fill="#007AFF">
            <tspan x="396.663086" y="835">2</tspan>
        </text>
        <g id="node" transform="translate(224, 704)" xlink:href="#path-14">
            <rect id="Rectangle" stroke="#979797" stroke-width="2" fill="#F1F1F1" fill-rule="evenodd" x="1" y="1" width="62" height="62" rx="31"></rect>
            <text id="number" font-family="Helvetica" font-size="18" font-weight="normal" fill="#000000">
                <tspan x="26.9946289" y="34">1</tspan>
            </text>
        </g>
        <g id="node" transform="translate(128, 800)" xlink:href="#path-15">
            <rect id="Rectangle" stroke="#979797" stroke-width="2" fill="#F1F1F1" fill-rule="evenodd" x="1" y="1" width="62" height="62" rx="31"></rect>
            <text id="number" font-family="Helvetica" font-size="18" font-weight="normal" fill="#000000">
                <tspan x="26.9946289" y="34">2</tspan>
            </text>
        </g>
        <g id="node" transform="translate(320, 800)" xlink:href="#path-16">
            <rect id="Rectangle" stroke="#6DD400" stroke-width="4" fill="#F1F1F1" fill-rule="evenodd" x="2" y="2" width="60" height="60" rx="30"></rect>
            <text id="number" font-family="Helvetica" font-size="18" font-weight="normal" fill="#000000">
                <tspan x="26.9946289" y="34">3</tspan>
            </text>
        </g>
        <line x1="232" y1="760.341797" x2="184" y2="808.018982" id="Path" stroke="#979797" stroke-width="1"></line>
        <line x1="232" y1="760.341797" x2="184" y2="808.018982" id="Path" stroke="#979797" stroke-width="1"></line>
        <line x1="328" y1="760.341797" x2="280" y2="808.018982" id="Path" stroke="#979797" stroke-width="1" transform="translate(304, 784.1804) scale(-1, 1) translate(-304, -784.1804)"></line>
        <text id="0" font-family="Helvetica-Bold, Helvetica" font-size="12" font-weight="bold" fill="#007AFF">
            <tspan x="732.663086" y="739">0</tspan>
        </text>
        <text id="1" font-family="Helvetica-Bold, Helvetica" font-size="12" font-weight="bold" fill="#007AFF">
            <tspan x="636.663086" y="835">1</tspan>
        </text>
        <g id="node" transform="translate(752, 704)" xlink:href="#path-17">
            <rect id="Rectangle" stroke="#979797" stroke-width="2" fill="#F1F1F1" fill-rule="evenodd" x="1" y="1" width="62" height="62" rx="31"></rect>
            <text id="number" font-family="Helvetica" font-size="18" font-weight="normal" fill="#000000">
                <tspan x="26.9946289" y="34">1</tspan>
            </text>
        </g>
        <g id="node" transform="translate(656, 800)" xlink:href="#path-18">
            <rect id="Rectangle" stroke="#979797" stroke-width="2" fill="#F1F1F1" fill-rule="evenodd" x="1" y="1" width="62" height="62" rx="31"></rect>
            <text id="number" font-family="Helvetica" font-size="18" font-weight="normal" fill="#000000">
                <tspan x="26.9946289" y="34">2</tspan>
            </text>
        </g>
        <line x1="760" y1="760.341797" x2="712" y2="808.018982" id="Path" stroke="#979797" stroke-width="1"></line>
        <line x1="760" y1="760.341797" x2="712" y2="808.018982" id="Path" stroke="#979797" stroke-width="1"></line>
        <text id="0" font-family="Helvetica-Bold, Helvetica" font-size="12" font-weight="bold" fill="#007AFF">
            <tspan x="732.663086" y="355">0</tspan>
        </text>
        <text id="1" font-family="Helvetica-Bold, Helvetica" font-size="12" font-weight="bold" fill="#007AFF">
            <tspan x="636.663086" y="451">1</tspan>
        </text>
        <text id="2" font-family="Helvetica-Bold, Helvetica" font-size="12" font-weight="bold" fill="#007AFF">
            <tspan x="924.663086" y="451">2</tspan>
        </text>
        <g id="node" transform="translate(752, 320)" xlink:href="#path-19">
            <rect id="Rectangle" stroke="#6DD400" stroke-width="4" fill="#F1F1F1" fill-rule="evenodd" x="2" y="2" width="60" height="60" rx="30"></rect>
            <text id="number" font-family="Helvetica" font-size="18" font-weight="normal" fill="#000000">
                <tspan x="26.9946289" y="34">3</tspan>
            </text>
        </g>
        <g id="node" transform="translate(656, 416)" xlink:href="#path-20">
            <rect id="Rectangle" stroke="#979797" stroke-width="2" fill="#F1F1F1" fill-rule="evenodd" x="1" y="1" width="62" height="62" rx="31"></rect>
            <text id="number" font-family="Helvetica" font-size="18" font-weight="normal" fill="#000000">
                <tspan x="26.9946289" y="34">2</tspan>
            </text>
        </g>
        <g id="node" transform="translate(848, 416)" xlink:href="#path-21">
            <rect id="Rectangle" stroke="#979797" stroke-width="2" fill="#F1F1F1" fill-rule="evenodd" x="1" y="1" width="62" height="62" rx="31"></rect>
            <text id="number" font-family="Helvetica" font-size="18" font-weight="normal" fill="#000000">
                <tspan x="26.9946289" y="34">1</tspan>
            </text>
        </g>
        <line x1="760" y1="376.341797" x2="712" y2="424.018982" id="Path" stroke="#979797" stroke-width="1"></line>
        <line x1="760" y1="376.341797" x2="712" y2="424.018982" id="Path" stroke="#979797" stroke-width="1"></line>
        <line x1="856" y1="376.341797" x2="808" y2="424.018982" id="Path" stroke="#979797" stroke-width="1" transform="translate(832, 400.1804) scale(-1, 1) translate(-832, -400.1804)"></line>
    </g>
</svg>